<svg width="62" height="63" viewBox="0 0 62 63" fill="none" xmlns="http://www.w3.org/2000/svg">
<path opacity="0.8" d="M15.3482 4.56686C20.0893 1.80793 25.2589 0.428467 30.8571 0.428467C36.4554 0.428467 41.6116 1.80793 46.3259 4.56686C51.067 7.32579 54.817 11.0758 57.5759 15.8169C60.3348 20.5311 61.7143 25.6874 61.7143 31.2856C61.7143 36.8838 60.3348 42.0535 57.5759 46.7945C54.817 51.5088 51.067 55.2454 46.3259 58.0044C41.6116 60.7633 36.4554 62.1428 30.8571 62.1428C25.2589 62.1428 20.0893 60.7633 15.3482 58.0044C10.6339 55.2454 6.89732 51.5088 4.13839 46.7945C1.37946 42.0535 0 36.8838 0 31.2856C0 25.6874 1.37946 20.5311 4.13839 15.8169C6.89732 11.0758 10.6339 7.32579 15.3482 4.56686ZM46.2857 33.4954C47.1429 33.0133 47.5714 32.2767 47.5714 31.2856C47.5714 30.2945 47.1429 29.5579 46.2857 29.0758L24.4286 16.2186C23.5982 15.7097 22.7411 15.6963 21.8571 16.1785C21 16.6874 20.5714 17.4374 20.5714 18.4285V44.1428C20.5714 45.1338 21 45.8838 21.8571 46.3928C22.2857 46.607 22.7143 46.7142 23.1429 46.7142C23.5982 46.7142 24.0268 46.5936 24.4286 46.3526L46.2857 33.4954Z" fill="white"/>
</svg>
