<svg width="14" height="15" viewBox="0 0 14 15" fill="none" xmlns="http://www.w3.org/2000/svg">
<path d="M13.4463 4.88262C13.3672 4.11123 12.6554 3.49412 11.8644 3.49412H10.678V2.72273C10.7571 1.56565 9.887 0.485708 8.70056 0.408569H8.62147H5.53672H5.45763C4.27119 0.562847 3.40113 1.56565 3.48023 2.72273V3.49412H2.21469C1.42373 3.49412 0.711864 4.11123 0.632768 4.88262L0 12.5965V12.6736C0 13.5222 0.711864 14.2936 1.58192 14.2936H12.4972C13.3672 14.2164 14 13.5222 14 12.5965L13.4463 4.88262ZM5.06215 2.6456C5.06215 2.33704 5.29943 2.02848 5.61582 1.95135H8.62147C8.93785 2.02848 9.17514 2.33704 9.17514 2.6456V2.72273V3.49412H5.06215V2.72273V2.6456ZM12.4181 12.7508H1.58192L2.21469 5.0369H3.48023V5.80829C3.48023 6.27112 3.79661 6.57967 4.27119 6.57967C4.74576 6.57967 5.06215 6.27112 5.06215 5.80829V5.0369H9.09604V5.80829C9.09604 6.27112 9.41243 6.57967 9.887 6.57967C10.3616 6.57967 10.678 6.27112 10.678 5.80829V5.0369H11.8644L12.4181 12.7508C12.4972 12.6736 12.4972 12.7508 12.4181 12.7508Z" fill="#333333"/>
</svg>
