<svg width="18" height="9" viewBox="0 0 18 9" fill="none" xmlns="http://www.w3.org/2000/svg">
<path d="M17.8286 5.0087C17.6571 4.85217 13.8 0 9 0C4.2 0 0.342854 4.85217 0.171426 5.0087C-0.085717 5.4 -2.68221e-06 5.86957 0.342854 6.10435C0.514283 6.18261 0.685712 6.26087 0.85714 6.26087C1.11428 6.26087 1.37143 6.18261 1.54285 5.94783C1.54285 5.94783 2.65714 4.53913 4.37143 3.28696C4.2 3.75652 4.11428 4.22609 4.11428 4.69565C4.11428 7.04348 6.25714 9 8.82857 9C11.4 9 13.5429 7.04348 13.5429 4.69565C13.5429 4.06956 13.3714 3.52174 13.1143 2.97391C15.0857 4.22609 16.3714 5.86957 16.3714 5.94783C16.6286 6.26087 17.1429 6.33913 17.5714 6.10435C18 5.86957 18.0857 5.4 17.8286 5.0087ZM8.82857 7.43478C7.2 7.43478 5.82857 6.18261 5.82857 4.69565C5.82857 3.2087 7.2 1.95652 8.82857 1.95652C10.4571 1.95652 11.8286 3.2087 11.8286 4.69565C11.8286 6.18261 10.4571 7.43478 8.82857 7.43478Z" fill="white"/>
<path fill-rule="evenodd" clip-rule="evenodd" d="M14.4842 3.98034C15.6601 4.96538 16.3714 5.88961 16.3714 5.94783C16.6286 6.26087 17.1429 6.33913 17.5714 6.10435C18 5.86957 18.0857 5.4 17.8286 5.0087C17.8153 4.99655 17.7798 4.95612 17.7233 4.89188C17.0528 4.12829 13.4275 0 9 0C4.5725 0 0.947201 4.12829 0.276648 4.89188C0.220231 4.95612 0.18473 4.99655 0.171426 5.0087C-0.085717 5.4 -2.68221e-06 5.86957 0.342854 6.10435C0.514283 6.18261 0.685712 6.26087 0.85714 6.26087C1.11428 6.26087 1.37143 6.18261 1.54285 5.94783C1.54285 5.94783 2.13918 5.19395 3.13048 4.29896C3.49426 3.97054 3.91122 3.62311 4.37143 3.28696C4.2 3.75652 4.11428 4.22609 4.11428 4.69565C4.11428 4.71882 4.11449 4.74194 4.11491 4.76503C4.15661 7.0819 6.28251 9 8.82857 9C11.4 9 13.5429 7.04348 13.5429 4.69565C13.5429 4.62935 13.5409 4.56393 13.5372 4.4993C13.5056 3.95354 13.3442 3.46373 13.1143 2.97391C13.6193 3.29467 14.0793 3.64112 14.4842 3.98034ZM11.2704 1.399C10.7275 1.21305 10.1656 1.08256 9.59144 1.02821C10.3165 1.1652 10.9903 1.49258 11.5333 1.95914L11.2704 1.399ZM5.81146 2.25849C6.2662 1.77223 6.84896 1.39832 7.49505 1.17848C6.99026 1.29603 6.49842 1.4666 6.02448 1.67499L5.81146 2.25849ZM1.03383 5.54514C1.14879 5.6361 1.31178 5.76504 1.54285 5.94783L1.03383 5.54514C1.03382 5.54515 1.03384 5.54513 1.03383 5.54514ZM0.834067 5.38702C0.841084 5.39258 0.848755 5.39865 0.85714 5.40529C0.894475 5.43485 0.945973 5.47562 1.017 5.53182C1.017 5.5318 1.01699 5.53183 1.017 5.53182L0.834067 5.38702ZM5.82857 4.69565C5.82857 6.18261 7.2 7.43478 8.82857 7.43478C10.4571 7.43478 11.8286 6.18261 11.8286 4.69565C11.8286 3.2087 10.4571 1.95652 8.82857 1.95652C7.2 1.95652 5.82857 3.2087 5.82857 4.69565Z" fill="#C4C4C4"/>
<path d="M9.61428 4.69565C9.61428 5.02601 9.30628 5.36957 8.82856 5.36957C8.35084 5.36957 8.04285 5.02601 8.04285 4.69565C8.04285 4.3653 8.35084 4.02174 8.82856 4.02174C9.30628 4.02174 9.61428 4.3653 9.61428 4.69565Z" fill="white" stroke="#C4C4C4"/>
</svg>
