<svg width="14" height="12" viewBox="0 0 14 12" fill="none" xmlns="http://www.w3.org/2000/svg">
<path d="M7 12C6.76666 12 6.61111 11.925 6.45555 11.775L1.08889 6.45003C-0.388892 4.95003 -0.388892 2.62503 1.08889 1.12503C1.16666 1.05003 1.24444 0.975034 1.32222 0.900034C2.02222 0.300034 2.95555 3.38256e-05 3.88889 3.38256e-05C4.9 3.38256e-05 5.75555 0.450034 6.45555 1.12503L6.92222 1.57503L7.38889 1.12503L7.46666 1.05003C9.02222 -0.374966 11.4333 -0.374966 12.9111 1.12503C14.3889 2.62503 14.3889 4.95003 12.9111 6.45003L7.54444 11.775C7.38889 11.925 7.23333 12 7 12ZM3.81111 1.50003C3.26666 1.50003 2.72222 1.72503 2.33333 2.02503C2.25555 2.02503 2.25555 2.10003 2.25555 2.10003C1.32222 3.07503 1.32222 4.50003 2.17777 5.40003L7 10.2L11.8222 5.40003C12.6778 4.50003 12.6778 3.07503 11.8222 2.17503C10.9667 1.27503 9.48888 1.27503 8.55555 2.17503L7.93333 1.72503L8.55555 2.17503L7.54444 3.22503C7.23333 3.52503 6.68889 3.52503 6.37777 3.22503L5.36666 2.17503C4.97777 1.72503 4.43333 1.50003 3.88889 1.50003C3.81111 1.50003 3.81111 1.50003 3.81111 1.50003Z" fill="#333333"/>
</svg>
