<svg width="13" height="13" viewBox="0 0 13 13" fill="none" xmlns="http://www.w3.org/2000/svg">
<path d="M12.7706 11.6845L10.4 9.3631C11.1647 8.35714 11.6235 7.11905 11.6235 5.80357C11.6235 2.63095 9.02353 0 5.81176 0C2.6 0 0 2.63095 0 5.80357C0 8.97619 2.6 11.6071 5.81176 11.6071C7.11176 11.6071 8.33529 11.1429 9.32941 10.4464L11.7 12.7679C11.8529 12.9226 12.0059 13 12.2353 13C12.4647 13 12.6176 12.9226 12.7706 12.7679C13.0765 12.4583 13.0765 11.994 12.7706 11.6845ZM1.52941 5.80357C1.52941 3.48214 3.44118 1.54762 5.81176 1.54762C8.18235 1.54762 10.0941 3.48214 10.0941 5.80357C10.0941 8.125 8.18235 10.0595 5.81176 10.0595C3.44118 10.0595 1.52941 8.125 1.52941 5.80357Z" fill="#333333"/>
</svg>
