<svg width="62" height="7" viewBox="0 0 62 7" fill="none" xmlns="http://www.w3.org/2000/svg">
<path d="M56.1875 3.85628C54.9475 2.91378 53.8883 2.0953 51.6667 2.0953C49.445 2.0953 48.3729 2.91378 47.1458 3.85628C45.7896 4.898 44.2654 6.06372 41.3204 6.06372C38.3754 6.06372 36.8512 4.898 35.5079 3.85628C34.2679 2.91378 33.2087 2.0953 30.9871 2.0953C28.7654 2.0953 27.7062 2.91378 26.4662 3.85628C25.1229 4.898 23.5987 6.06372 20.6537 6.06372C17.7087 6.06372 16.1846 4.898 14.8412 3.85628C13.6142 2.91378 12.5421 2.0953 10.3333 2.0953C8.12458 2.0953 7.0525 2.91378 5.8125 3.85628C4.46917 4.898 2.945 6.06372 0 6.06372V4.07951C2.22167 4.07951 3.28083 3.26102 4.52083 2.31852C5.86417 1.27681 7.38833 0.111084 10.3333 0.111084C13.2783 0.111084 14.8025 1.27681 16.1458 2.31852C17.3729 3.26102 18.445 4.07951 20.6667 4.07951C22.8883 4.07951 23.9475 3.26102 25.1875 2.31852C26.5308 1.28921 28.055 0.111084 31 0.111084C33.945 0.111084 35.4692 1.27681 36.8125 2.31852C38.0525 3.26102 39.1117 4.07951 41.3333 4.07951C43.555 4.07951 44.6271 3.26102 45.8542 2.31852C47.1975 1.28921 48.7217 0.111084 51.6667 0.111084C54.6117 0.111084 56.1358 1.27681 57.4792 2.31852C58.7192 3.26102 59.7783 4.07951 62 4.07951V6.06372C59.055 6.06372 57.5308 4.898 56.1875 3.85628Z" fill="#111111"/>
</svg>
