<svg width="173" height="104" viewBox="0 0 173 104" fill="none" xmlns="http://www.w3.org/2000/svg">
<path fill-rule="evenodd" clip-rule="evenodd" d="M40.7075 26.1501C33.7829 15.6395 20.5175 5.20555 0.871552 -0.0167776L1.12845 -0.983215C20.9825 4.29445 34.4671 14.8605 41.5425 25.5999C42.6184 27.2329 43.548 28.8744 44.3296 30.505C53.278 26.9752 65.1594 26.5152 79.2481 34.5659C86.3631 38.6316 91.2926 45.2243 95.818 52.678C97.3512 55.2032 98.8352 57.8214 100.342 60.4791C103.304 65.7043 106.352 71.0826 110.031 76.2085C115.561 83.9132 122.471 90.9721 132.516 95.863C142.563 100.755 155.786 103.497 173.973 102.501L174.027 103.499C155.714 104.503 142.312 101.745 132.078 96.762C121.842 91.7779 114.814 84.5868 109.219 76.7915C105.511 71.6251 102.412 66.1599 99.4332 60.9058C97.9337 58.261 96.4646 55.6698 94.9632 53.197C90.4574 45.7757 85.6369 39.3684 78.7519 35.4341C64.9492 27.5469 53.4042 28.0173 44.7505 31.414C48.6447 40.1306 48.2737 48.4334 43.3536 53.3536C40.4309 56.2762 37.6553 57.7818 35.1807 58.2189C32.695 58.6581 30.548 58.0114 28.9347 56.7006C25.7325 54.0988 24.7034 48.9519 27.0642 44.7549C29.2919 40.7946 34.9476 34.4997 43.4054 30.8847C42.6512 29.32 41.7525 27.7363 40.7075 26.1501ZM43.8275 31.7918C35.5719 35.3115 30.0669 41.4565 27.9358 45.2451C25.7966 49.0481 26.7675 53.6513 29.5653 55.9244C30.952 57.0511 32.805 57.6232 35.0068 57.2342C37.2197 56.8432 39.8191 55.4738 42.6465 52.6465C47.153 48.1399 47.642 40.2962 43.8275 31.7918Z" fill="black"/>
</svg>
