<svg width="266" height="103" viewBox="0 0 266 103" fill="none" xmlns="http://www.w3.org/2000/svg">
<path fill-rule="evenodd" clip-rule="evenodd" d="M224.525 30.33C236.94 18.1874 252.728 7.41304 264.753 0.565491L265.247 1.43448C253.272 8.2536 237.56 18.9792 225.225 31.0449C222.879 33.3392 220.658 35.6798 218.609 38.0492C224.869 40.5547 231.151 44.3283 237.325 49.6204C243.494 54.908 247.055 59.9112 248.788 64.5112C250.524 69.1189 250.416 73.296 249.29 76.8991C247.048 84.0712 240.796 88.917 237.197 90.4596C233.595 92.0033 226.253 93.1105 219.388 90.5428C212.467 87.9544 206.108 81.6603 204.504 68.5608C203.736 62.2924 205.659 55.7561 209.299 49.2937C211.347 45.6565 213.946 42.031 216.933 38.474C209.041 35.5384 201.213 34.632 193.716 35.2215C179.945 36.3042 167.253 42.4379 157.312 50.3904C152.376 54.3392 148.506 59.565 144.72 65.2309C143.822 66.5758 142.928 67.9464 142.025 69.3296C139.139 73.7548 136.168 78.3093 132.7 82.5658C128.139 88.1648 122.697 93.2803 115.391 96.9926C108.084 100.705 98.9414 103 87 103C63.1062 103 41.5063 92.314 25.9056 81.6629C18.1006 76.3342 11.7851 71.006 7.42017 67.0094C5.23747 65.0109 3.54187 63.3447 2.39099 62.1772C1.81554 61.5934 1.37622 61.1342 1.08024 60.8203C0.932245 60.6634 0.820084 60.5429 0.744654 60.4612C0.706939 60.4204 0.678406 60.3893 0.659168 60.3683L0.637295 60.3443L0.631614 60.3381L0.630091 60.3364C0.629697 60.3359 0.629449 60.3357 1.00001 60C1.37057 59.6643 1.37062 59.6644 1.37081 59.6646L1.3768 59.6712L1.39702 59.6933C1.41516 59.7131 1.44257 59.743 1.47915 59.7826C1.55231 59.8618 1.66214 59.9799 1.80772 60.1342C2.0989 60.443 2.53312 60.8968 3.10317 61.4752C4.2433 62.6318 5.92661 64.286 8.09548 66.2718C12.4337 70.244 18.7119 75.5408 26.4694 80.837C41.9937 91.4359 63.3938 102 87 102C98.8086 102 107.791 99.7321 114.938 96.1011C122.084 92.4697 127.423 87.4602 131.925 81.9342C135.355 77.7228 138.287 73.23 141.167 68.8143C142.075 67.4233 142.977 66.0399 143.889 64.6754C147.682 58.9975 151.624 53.6607 156.688 49.6096C166.747 41.562 179.624 35.3264 193.638 34.2245C201.391 33.6149 209.481 34.5779 217.62 37.6641C219.756 35.177 222.076 32.7257 224.525 30.33ZM217.921 38.8524C214.873 42.4554 212.234 46.1199 210.17 49.7844C206.591 56.1397 204.764 62.4576 205.496 68.4392C207.059 81.2048 213.2 87.1608 219.738 89.6061C226.331 92.0721 233.405 90.9966 236.803 89.5404C240.204 88.083 246.202 83.4287 248.335 76.6008C249.397 73.204 249.507 69.2561 247.852 64.8638C246.195 60.4638 242.756 55.5919 236.675 50.3796C230.48 45.0695 224.184 41.3158 217.921 38.8524Z" fill="black"/>
</svg>
