<svg width="418" height="163" viewBox="0 0 418 163" fill="none" xmlns="http://www.w3.org/2000/svg">
<path fill-rule="evenodd" clip-rule="evenodd" d="M376.525 30.33C388.94 18.1874 404.728 7.41298 416.753 0.56543L417.247 1.43441C405.272 8.25354 389.56 18.9791 377.225 31.0449C374.879 33.3392 372.658 35.6798 370.608 38.0491C376.869 40.5546 383.151 44.3283 389.325 49.6203C395.494 54.908 399.055 59.9111 400.788 64.5112C402.524 69.1188 402.416 73.296 401.29 76.8991C399.048 84.0712 392.796 88.9169 389.197 90.4595C385.595 92.0033 378.253 93.1104 371.388 90.5427C364.467 87.9544 358.108 81.6603 356.504 68.5607C355.736 62.2923 357.659 55.756 361.299 49.2936C363.347 45.6565 365.946 42.0309 368.933 38.4739C361.041 35.5384 353.213 34.6319 345.716 35.2214C331.945 36.3042 319.253 42.4379 309.312 50.3904C304.376 54.3392 300.505 59.5649 296.72 65.2308C295.822 66.5757 294.928 67.9463 294.025 69.3296C291.139 73.7548 288.167 78.3093 284.7 82.5657C280.139 88.1647 274.697 93.2802 267.391 96.9926C260.084 100.705 250.941 103 239 103C215.106 103 193.506 92.314 177.906 81.6629C170.101 76.3341 163.785 71.0059 159.42 67.0093C157.237 65.0108 155.542 63.3447 154.391 62.1771C153.816 61.5933 153.376 61.1341 153.08 60.8203C152.932 60.6634 152.82 60.5428 152.745 60.4611C152.707 60.4203 152.678 60.3892 152.659 60.3682L152.637 60.3442L152.632 60.338L152.63 60.3363C152.63 60.3363 152.629 60.3356 153 59.9999C153.371 59.6642 153.371 59.6645 153.371 59.6645L153.377 59.6711L153.397 59.6932C153.415 59.7131 153.443 59.7429 153.479 59.7825C153.552 59.8617 153.662 59.9798 153.808 60.1342C154.099 60.4429 154.533 60.8968 155.103 61.4751C156.243 62.6318 157.927 64.2859 160.095 66.2718C164.434 70.2439 170.712 75.5407 178.469 80.837C193.994 91.4359 215.394 102 239 102C250.809 102 259.791 99.7321 266.938 96.101C274.084 92.4696 279.423 87.4601 283.925 81.9341C287.355 77.7227 290.287 73.23 293.167 68.8142C294.075 67.4232 294.977 66.0398 295.889 64.6753C299.682 58.9974 303.624 53.6607 308.688 49.6095C318.747 41.562 331.624 35.3263 345.638 34.2245C353.391 33.6148 361.481 34.5778 369.62 37.664C371.756 35.1769 374.076 32.7257 376.525 30.33ZM369.921 38.8523C366.873 42.4553 364.234 46.1199 362.17 49.7843C358.591 56.1396 356.764 62.4575 357.496 68.4392C359.059 81.2048 365.2 87.1607 371.738 89.6061C378.331 92.072 385.405 90.9966 388.803 89.5404C392.204 88.0829 398.202 83.4287 400.335 76.6008C401.397 73.2039 401.507 69.256 399.852 64.8637C398.195 60.4637 394.756 55.5919 388.675 50.3796C382.479 45.0695 376.184 41.3157 369.921 38.8523Z" fill="black"/>
<path fill-rule="evenodd" clip-rule="evenodd" d="M141.219 47.1623C145.131 51.2211 149.175 55.418 153.356 59.6486L152.644 60.3514C148.443 56.0991 144.391 51.8948 140.478 47.8347C134.712 41.8512 129.248 36.1811 124.05 31.1321C115.325 22.6572 107.424 16.0079 100.226 12.6404C96.6332 10.9599 93.2415 10.1093 90.0272 10.2408C86.8212 10.372 83.7582 11.4814 80.8153 13.7771C74.9025 18.3895 69.4709 27.7941 64.4769 43.6502C48.4522 94.5285 15.414 143.949 0.892123 162.31L0.107788 161.69C14.5859 143.384 47.5477 94.0715 63.523 43.3498C68.529 27.4559 74.035 17.798 80.2002 12.9886C83.2964 10.5733 86.5576 9.38194 89.9864 9.24164C93.4069 9.10167 96.9604 10.0089 100.649 11.7346C108.013 15.1796 116.018 21.9365 124.747 30.4148C129.952 35.4708 135.44 41.1658 141.219 47.1623Z" fill="black"/>
</svg>
