<svg width="62" height="7" viewBox="0 0 62 7" fill="none" xmlns="http://www.w3.org/2000/svg">
<path d="M56.1875 4.7032C54.9475 3.76101 53.8883 2.94279 51.6667 2.94279C49.445 2.94279 48.3729 3.76101 47.1458 4.7032C45.7896 5.74457 44.2654 6.90991 41.3204 6.90991C38.3754 6.90991 36.8512 5.74457 35.5079 4.7032C34.2679 3.76101 33.2087 2.94279 30.9871 2.94279C28.7654 2.94279 27.7062 3.76101 26.4662 4.7032C25.1229 5.74457 23.5987 6.90991 20.6537 6.90991C17.7087 6.90991 16.1846 5.74457 14.8412 4.7032C13.6142 3.76101 12.5421 2.94279 10.3333 2.94279C8.12458 2.94279 7.0525 3.76101 5.8125 4.7032C4.46917 5.74457 2.945 6.90991 0 6.90991V4.92635C2.22167 4.92635 3.28083 4.10813 4.52083 3.16594C5.86417 2.12457 7.38833 0.959229 10.3333 0.959229C13.2783 0.959229 14.8025 2.12457 16.1458 3.16594C17.3729 4.10813 18.445 4.92635 20.6667 4.92635C22.8883 4.92635 23.9475 4.10813 25.1875 3.16594C26.5308 2.13697 28.055 0.959229 31 0.959229C33.945 0.959229 35.4692 2.12457 36.8125 3.16594C38.0525 4.10813 39.1117 4.92635 41.3333 4.92635C43.555 4.92635 44.6271 4.10813 45.8542 3.16594C47.1975 2.13697 48.7217 0.959229 51.6667 0.959229C54.6117 0.959229 56.1358 2.12457 57.4792 3.16594C58.7192 4.10813 59.7783 4.92635 62 4.92635V6.90991C59.055 6.90991 57.5308 5.74457 56.1875 4.7032Z" fill="#111111"/>
</svg>
